# xmcd
#
# Track frame offsets:
#	150
#	23280
#	38935
#	54215
#	69058
#	87523
#	108890
#	127130
#	146933
#	168918
#	195403
#	211393
#	230205
#	247790
#	265580
#	290880
#	309835
#	322020
#
# Disc length: 4527 seconds
#
# Revision: 1
# Processed by: cddbd v1.5.1PL0 Copyright (c) Steve Scherf et al.
# Submitted via: CDex 1.50Beta5
#
DISCID=f911ad12
DTITLE=井上陽水 - GOLDEN BEST Disc 1
DYEAR=1999
DGENRE=
TTITLE0=少年時代
TTITLE1=ありがとう
TTITLE2=Make-up Shadow
TTITLE3=アジアの純真
TTITLE4=最後のニュース
TTITLE5=傘がない
TTITLE6=氷の世界
TTITLE7=夢の中へ
TTITLE8=リバーサイドホテル
TTITLE9=心もよう
TTITLE10=5月の別れ
TTITLE11=いっそ セレナーデ
TTITLE12=クレイジーラブ
TTITLE13=飾りじゃないのよ涙は
TTITLE14=ジェラシー
TTITLE15=青空、ひとりきり
TTITLE16=新しいラプソディー
TTITLE17=長い坂の絵のフレーム
EXTD=
EXTT0=
EXTT1=
EXTT2=
EXTT3=
EXTT4=
EXTT5=
EXTT6=
EXTT7=
EXTT8=
EXTT9=
EXTT10=
EXTT11=
EXTT12=
EXTT13=
EXTT14=
EXTT15=
EXTT16=
EXTT17=
PLAYORDER=
